<svg xmlns="http://www.w3.org/2000/svg" xmlns:xlink="http://www.w3.org/1999/xlink" version="1.1" id="Layer_1" x="0px" y="0px" viewBox="0 0 432 216" enable-background="new 0 0 432 216" xml:space="preserve">
<g>
	<path fill="#891A1C" d="M121.6 114.8c0.2-2 1.5-3.6 3.3-4.4c-0.2-0.8-0.5-1.6-0.7-2.3c-0.5 0.1-1 0.1-1.6 0c-3.1-0.3-5.3-3.1-5-6.1 c0.1-1.2 0.6-2.2 1.4-3c-0.5-0.7-1.1-1.3-1.7-1.9c-1.1 0.7-2.4 1.1-3.8 0.9c-3.1-0.3-5.3-3.1-5-6.1c0-0.4 0.1-0.7 0.2-1.1 c-0.7-0.4-1.5-0.7-2.3-1.1c-1.1 1.8-3.2 2.9-5.5 2.7c-2.8-0.3-4.8-2.5-5-5.1c-0.8-0.1-1.6-0.1-2.5-0.1c0 0 0 0 0 0 c-0.4 3-3.2 5.2-6.2 4.9c-1.9-0.2-3.6-1.4-4.4-3c-0.8 0.3-1.5 0.6-2.2 0.9c0.3 0.8 0.4 1.6 0.3 2.5c-0.4 3-3.2 5.2-6.3 4.9 c-1.2-0.1-2.2-0.6-3-1.3c-0.6 0.6-1.2 1.1-1.7 1.8c1.2 1.2 1.8 2.8 1.6 4.5c-0.4 3-3.2 5.2-6.3 4.9c-0.4 0-0.7-0.1-1.1-0.2 c-0.3 0.8-0.6 1.7-0.9 2.6c2.4 0.8 4 3.2 3.7 5.8c-0.3 2.6-2.4 4.6-5 4.9c0 0.8 0.1 1.6 0.2 2.4c0.4 0 0.7 0 1.1 0 c3.1 0.3 5.3 3.1 5 6.1c-0.2 1.8-1.3 3.3-2.8 4.2c0.4 0.7 0.8 1.4 1.2 2.1c1-0.5 2.2-0.8 3.4-0.6c3.1 0.3 5.3 3.1 5 6.1 c-0.1 1-0.5 1.8-1 2.6c0.6 0.5 1.3 0.9 1.9 1.4c1.2-1.5 3.1-2.4 5.1-2.2c3.1 0.4 5.3 3.1 5 6.1c0 0.2 0 0.3-0.1 0.5 c0.8 0.2 1.6 0.4 2.4 0.5c0.7-2.6 3.3-4.3 6.1-4c2.4 0.3 4.2 1.9 4.8 4c0.8-0.1 1.7-0.3 2.5-0.5c-0.1-0.4-0.1-0.9 0-1.3 c0.4-3 3.2-5.2 6.3-4.9c1.5 0.2 2.7 0.9 3.6 1.9c0.7-0.5 1.4-0.9 2-1.4c-0.6-1-0.9-2.2-0.7-3.4c0.4-3 3.2-5.2 6.3-4.9 c0.6 0.1 1.2 0.2 1.7 0.5c0.5-0.7 0.9-1.4 1.3-2.2c-1.5-1.1-2.4-3-2.2-5c0.3-2.8 2.7-4.8 5.5-4.9c0.1-0.4 0.1-0.8 0.2-1.2 c0-0.4 0.1-0.8 0.1-1.2C123.1 120.1 121.3 117.6 121.6 114.8z M114.8 120.8c-1.3 11.3-11.7 19.4-23.2 18.1 c-11.5-1.3-19.8-11.5-18.4-22.8c1.3-11.3 11.7-19.4 23.2-18.1C107.9 99.3 116.1 109.5 114.8 120.8z"/>
	<path fill="#891A1C" d="M1.4 130.2l15.3-2.3c0.7 2.9 2 5.1 4 6.6c2 1.5 4.8 2.3 8.4 2.3c4 0 6.9-0.7 8.9-2.1c1.3-1 2-2.3 2-4 c0-1.1-0.4-2.1-1.1-2.8c-0.8-0.7-2.5-1.4-5.1-2c-12.3-2.7-20.2-5.1-23.5-7.3c-4.6-3.1-6.9-7.3-6.9-12.7c0-4.9 2-9 5.9-12.4 c4-3.3 10.1-5 18.4-5c7.9 0 13.8 1.3 17.6 3.8c3.8 2.5 6.5 6.3 7.9 11.2L39 106.1c-0.6-2.2-1.8-3.9-3.5-5.1 c-1.7-1.2-4.2-1.8-7.4-1.8c-4 0-6.9 0.6-8.7 1.7c-1.2 0.8-1.7 1.8-1.7 3c0 1.1 0.5 2 1.5 2.7c1.4 1 6.1 2.4 14.3 4.2 c8.1 1.8 13.8 4 17.1 6.7c3.2 2.7 4.8 6.4 4.8 11.1c0 5.2-2.2 9.7-6.6 13.4c-4.4 3.7-11 5.6-19.6 5.6c-7.9 0-14.1-1.6-18.7-4.7 C5.8 139.8 2.8 135.6 1.4 130.2z"/>
	<path fill="#891A1C" d="M130.1 89.7h8.5v-4.3c0-4.8 0.5-8.3 1.6-10.7c1-2.3 2.9-4.3 5.7-5.7c2.8-1.5 6.3-2.2 10.5-2.2 c4.4 0 8.6 0.6 12.8 1.9l-2.1 10.5c-2.4-0.6-4.8-0.9-7-0.9c-2.2 0-3.8 0.5-4.8 1.5c-1 1-1.4 3-1.4 5.8v4h11.4v11.8h-11.4v44.8 h-15.3v-44.8h-8.5V89.7z"/>
	<path fill="#891A1C" d="M200.4 89.7v11.9H190v22.8c0 4.6 0.1 7.3 0.3 8.1c0.2 0.8 0.7 1.4 1.4 1.9c0.7 0.5 1.6 0.7 2.6 0.7 c1.4 0 3.5-0.5 6.1-1.4l1.3 11.6c-3.6 1.5-7.6 2.2-12.1 2.2c-2.8 0-5.2-0.5-7.5-1.4c-2.2-0.9-3.8-2.1-4.9-3.5 c-1-1.4-1.7-3.4-2.1-5.8c-0.3-1.7-0.5-5.3-0.5-10.6v-24.7h-7V89.7h7V78.5l15.3-8.7v20H200.4z"/>
	<path fill="#891A1C" d="M222.5 107l-13.9-2.5c1.6-5.5 4.2-9.5 8.1-12.2c3.8-2.6 9.5-3.9 17-3.9c6.8 0 11.9 0.8 15.2 2.4 c3.3 1.6 5.7 3.6 7 6c1.4 2.4 2 6.9 2 13.4l-0.2 17.5c0 5 0.2 8.7 0.7 11c0.5 2.4 1.4 4.9 2.7 7.6h-15.1c-0.4-1-0.9-2.5-1.5-4.4 c-0.3-0.9-0.4-1.5-0.5-1.8c-2.6 2.5-5.4 4.4-8.4 5.6c-3 1.2-6.1 1.9-9.5 1.9c-5.9 0-10.6-1.6-14.1-4.7c-3.4-3.2-5.1-7.2-5.1-12 c0-3.2 0.8-6.1 2.3-8.6c1.6-2.5 3.7-4.4 6.6-5.8c2.8-1.3 6.9-2.5 12.2-3.5c7.1-1.3 12.1-2.5 14.9-3.7v-1.5c0-2.9-0.7-4.9-2.2-6.2 c-1.5-1.2-4.2-1.8-8.2-1.8c-2.7 0-4.8 0.5-6.4 1.6C224.6 102.5 223.4 104.4 222.5 107z M242.9 119.2c-2 0.6-5.1 1.4-9.3 2.3 c-4.2 0.9-7 1.8-8.3 2.6c-2 1.4-3 3.1-3 5.3c0 2.1 0.8 3.9 2.4 5.4c1.6 1.5 3.6 2.3 6.1 2.3c2.8 0 5.4-0.9 7.9-2.7 c1.9-1.4 3.1-3 3.6-5c0.4-1.3 0.6-3.7 0.6-7.3V119.2z"/>
	<path fill="#891A1C" d="M287.6 146.4h-15.3V89.7h14.2v8c2.4-3.8 4.6-6.3 6.6-7.5c1.9-1.2 4.1-1.8 6.6-1.8c3.5 0 6.8 0.9 10.1 2.8 l-4.7 13.1c-2.6-1.6-5-2.5-7.2-2.5c-2.1 0-4 0.6-5.4 1.7c-1.5 1.2-2.7 3.2-3.5 6.3c-0.9 3-1.3 9.4-1.3 19V146.4z"/>
	<path fill="#891A1C" d="M349.8 128.4l15.2 2.5c-2 5.5-5 9.6-9.3 12.5c-4.2 2.9-9.5 4.3-15.9 4.3c-10 0-17.5-3.2-22.3-9.7 c-3.8-5.2-5.7-11.7-5.7-19.5c0-9.4 2.5-16.7 7.5-22.1c5-5.3 11.3-8 19-8c8.6 0 15.4 2.8 20.3 8.3c5 5.6 7.3 14.1 7.1 25.6h-38.3 c0.1 4.4 1.3 7.9 3.7 10.4c2.4 2.5 5.3 3.7 8.8 3.7c2.4 0 4.4-0.6 6-1.9C347.8 133.3 349 131.2 349.8 128.4z M350.7 113.2 c-0.1-4.3-1.3-7.6-3.4-9.9c-2.2-2.3-4.8-3.4-7.9-3.4c-3.3 0-6.1 1.2-8.3 3.6c-2.2 2.4-3.2 5.6-3.2 9.7H350.7z"/>
	<ellipse fill="#43423D" cx="94" cy="118.4" rx="12.1" ry="11.8"/>
	<g>
		<path fill="#43423D" d="M8.1 158.2v4.4h4.8v2.5H8.1v9.8c0 2.3 0.7 3.5 2.5 3.5c0.9 0 1.5-0.1 2-0.2l0.2 2.5 c-0.7 0.2-1.7 0.4-3 0.4c-1.6 0-2.8-0.5-3.7-1.4c-0.9-1-1.3-2.6-1.3-4.8v-9.9H1.9v-2.5h2.9v-3.4L8.1 158.2z"/>
		<path fill="#43423D" d="M28.7 172.3c0.1 4.5 3 6.3 6.4 6.3c2.4 0 3.9-0.4 5.2-0.9l0.6 2.4c-1.2 0.5-3.3 1.2-6.2 1.2 c-5.7 0-9.1-3.7-9.1-9.2c0-5.5 3.3-9.8 8.7-9.8c6.1 0 7.7 5.2 7.7 8.6c0 0.7 0 1.2-0.1 1.5H28.7z M38.6 169.9 c0-2.1-0.9-5.4-4.7-5.4c-3.5 0-4.9 3.1-5.2 5.4H38.6z"/>
		<path fill="#43423D" d="M69.7 180.2c-0.9 0.4-2.8 1.1-5.3 1.1c-5.6 0-9.3-3.7-9.3-9.3c0-5.6 3.9-9.7 10-9.7c2 0 3.8 0.5 4.7 1 l-0.8 2.5c-0.8-0.4-2.1-0.9-3.9-0.9c-4.3 0-6.6 3.1-6.6 6.9c0 4.2 2.8 6.8 6.5 6.8c1.9 0 3.2-0.5 4.2-0.9L69.7 180.2z"/>
		<path fill="#43423D" d="M84 154h3.4v11.4h0.1c0.5-0.9 1.4-1.8 2.4-2.4c1-0.6 2.2-0.9 3.5-0.9c2.5 0 6.5 1.5 6.5 7.8v10.9h-3.4 v-10.5c0-2.9-1.1-5.4-4.3-5.4c-2.2 0-3.9 1.5-4.5 3.3c-0.2 0.5-0.2 1-0.2 1.6v11H84V154z"/>
		<path fill="#43423D" d="M115.7 167.5c0-1.9 0-3.4-0.2-4.9h3l0.2 3h0.1c0.9-1.7 3.1-3.4 6.2-3.4c2.6 0 6.6 1.5 6.6 7.8v10.9h-3.4 v-10.5c0-2.9-1.1-5.4-4.3-5.4c-2.2 0-3.9 1.5-4.5 3.4c-0.1 0.4-0.2 1-0.2 1.5v11h-3.4V167.5z"/>
		<path fill="#43423D" d="M164.2 171.5c0 6.7-4.8 9.7-9.3 9.7c-5 0-8.9-3.6-8.9-9.4c0-6.1 4.1-9.6 9.2-9.6 C160.6 162.2 164.2 166 164.2 171.5z M149.5 171.7c0 4 2.3 7 5.6 7c3.2 0 5.7-3 5.7-7.1c0-3.1-1.6-7-5.6-7 C151.2 164.7 149.5 168.3 149.5 171.7z"/>
		<path fill="#43423D" d="M178.8 154h3.4v26.8h-3.4V154z"/>
		<path fill="#43423D" d="M215.1 171.5c0 6.7-4.8 9.7-9.3 9.7c-5 0-8.9-3.6-8.9-9.4c0-6.1 4.1-9.6 9.2-9.6 C211.5 162.2 215.1 166 215.1 171.5z M200.3 171.7c0 4 2.3 7 5.6 7c3.2 0 5.7-3 5.7-7.1c0-3.1-1.6-7-5.6-7 C202.1 164.7 200.3 168.3 200.3 171.7z"/>
		<path fill="#43423D" d="M245.6 178.1c0 4.2-0.9 6.7-2.7 8.4c-1.8 1.6-4.5 2.2-6.8 2.2c-2.2 0-4.7-0.5-6.2-1.5l0.8-2.6 c1.2 0.8 3.2 1.5 5.5 1.5c3.5 0 6-1.8 6-6.4v-2h-0.1c-1 1.7-3 3-5.9 3c-4.6 0-7.9-3.8-7.9-8.9c0-6.2 4.1-9.6 8.4-9.6 c3.2 0 5 1.6 5.8 3.1h0.1l0.1-2.8h3c-0.1 1.3-0.2 2.8-0.2 5V178.1z M242.2 169.8c0-0.6 0-1.1-0.2-1.5c-0.6-2-2.2-3.5-4.7-3.5 c-3.2 0-5.5 2.7-5.5 6.9c0 3.6 1.9 6.6 5.5 6.6c2.1 0 4-1.3 4.7-3.4c0.2-0.6 0.3-1.2 0.3-1.8V169.8z"/>
		<path fill="#43423D" d="M265.1 157.4c0 1.1-0.8 2-2.2 2c-1.2 0-2-0.9-2-2s0.8-2.1 2.1-2.1C264.2 155.4 265.1 156.3 265.1 157.4z M261.3 180.8v-18.2h3.4v18.2H261.3z"/>
		<path fill="#43423D" d="M282.5 172.3c0.1 4.5 3 6.3 6.4 6.3c2.4 0 3.9-0.4 5.2-0.9l0.6 2.4c-1.2 0.5-3.3 1.2-6.2 1.2 c-5.7 0-9.1-3.7-9.1-9.2c0-5.5 3.3-9.8 8.7-9.8c6.1 0 7.7 5.2 7.7 8.6c0 0.7 0 1.2-0.1 1.5H282.5z M292.4 169.9 c0-2.1-0.9-5.4-4.7-5.4c-3.5 0-4.9 3.1-5.2 5.4H292.4z"/>
		<path fill="#43423D" d="M309.8 177.4c1 0.6 2.8 1.3 4.5 1.3c2.4 0 3.6-1.2 3.6-2.7c0-1.6-1-2.4-3.4-3.3c-3.4-1.2-5-3-5-5.2 c0-2.9 2.5-5.4 6.4-5.4c1.9 0 3.5 0.5 4.5 1.1l-0.8 2.4c-0.7-0.5-2.1-1.1-3.8-1.1c-2 0-3.1 1.1-3.1 2.5c0 1.5 1.1 2.2 3.5 3.1 c3.2 1.2 4.9 2.8 4.9 5.5c0 3.2-2.6 5.5-6.9 5.5c-2 0-3.9-0.5-5.2-1.3L309.8 177.4z"/>
	</g>
	<path fill="#891A1C" d="M431.3 146.4l-17.8-24.8c14.6-24.8 18.2-51.4 7.3-73.8c-7.6-15.5-21.1-26.9-38.2-33.9 c12.1 7 21.7 16.6 27.6 28.7c21.6 44.3-13.3 104.8-78.1 135.2c-42.1 19.8-86.5 21.9-118.3 8.9c32 18.5 81.9 18.4 128.9-3.7 c26.1-12.2 47.3-29.4 62-48.4l7.9 11.8H431.3z"/>
	<path fill="#43423D" d="M406 47.3C386.8 8 321.7-0.6 260.6 28c-29.4 13.8-52.5 33.8-66.4 55.1c14.2-17.3 34.6-33.1 59.3-44.7 C314.6 9.8 379.3 17.5 398 55.8c6.8 13.9 6.6 30 0.6 46.2l-8-12.2h-18.7l19.6 27c-7.8 13.4-19.4 26.4-33.9 37.9 C400.9 124.4 422.1 80.3 406 47.3z"/>
</g>
</svg>
